<svg xmlns="http://www.w3.org/2000/svg" viewBox="0 0 612 142">
  <path d="M448.7 134.6c-1.8-2.4-.9-5.8-2.4-8.1-1-.5-1.6.1-2.1.4-7.5 5.1-16.2 7.2-24.7 9.7-1.1.3-2.3.2-3.5.2-4.2 0-8.3-.2-12.5.1-4.5.3-8.6-.8-12.5-2.7-9.1-4.3-14.6-11.8-14.8-21.8-.5-17.5-.4-35 0-52.5.2-9.8 6.7-18.8 16.6-22.5 4.8-1.8 9.8-2.7 15-2.6 10.3.1 20.6 0 31 0 1.6 0 3.3.3 4.9-.3.9-1.3.5-2.6.5-3.9V8.1c0-1.6-.6-3.4 1.2-5h31.3c.8 4.6.3 9.4.4 14.2.1 4.8 0 9.7 0 14.5v102.4c-3.8.9-21.2 1.1-28.4.4zm-39.6-69.7v37.5c0 2.3.5 4.2 2.1 6 6.5 3.2 13.3 1.4 19.9.4 4.4-.6 9.2-.8 12.9-3.4V61.1h-31.3c-1.5 1.1-2.6 2.1-3.6 3.8zM303.2 136.9h-22.5c-7.5 0-14.3-1.7-20.2-6.7-3.4-2.9-5.8-6.3-7.3-10.3-1.4-3.9-2.2-7.9-2.2-12.1.2-15.7-.2-31.3.2-47 .3-10.8 4.9-19.4 14.9-24.4 3.1-1.6 6.4-2.5 10-2.5 18 0 36-.5 54 .2 9.5.3 17.2 4.8 21.4 14.3 2.5 5.8 3.3 11.7 3.5 17.8.3 10.3-.1 20.7.1 31 .1 6-.2 12-1.2 17.8-1.6 8.9-6.5 15.7-15.3 19.3-5 2-10 3-15.5 2.8-6.6-.4-13.2-.2-19.9-.2zm-17.3-76.2c-1.6 2.1-1.8 4.2-1.8 6.4.1 12 .1 23.9 0 35.9 0 3.2.8 5.9 4 8 10.1 1.3 20.6 1.6 30.9-.3 2.4-2.6 3.2-5.3 3.1-8.4V70.9c0-3-.2-5.9-1.5-9-.9-.8-2-1.8-3.2-3H291c-1.9 0-3.5.7-5.1 1.8zM593 134.8h-28.1c-1.8-2.4-1.7-5.5-1.9-8.1-1.3-1.2-2.2-.1-2.8.3-7.5 5.1-16.2 7.4-24.8 9.6-4.1 1-8.6.2-12.9.4-4 .2-7.8-.8-11.6-1.9-8.8-2.5-17.2-14.5-16.7-23.1.3-5.1 0-10.3.1-15.5 0-5.9 2.5-10.8 6.2-15.3 5.6-6.8 13.1-9.2 21.6-9.2h38.6c1.2-2.4.3-4.7.6-6.8-.9-2.1-1.7-4.1-3.2-5.9-.8-.1-1.6-.3-2.4-.3-10.7 0-21.3-.4-32 .2-4.3.2-8.8.3-13.2 1.6-2 .6-4.3.1-6.4.1-.9-3.4-1.2-15.7-.4-23.6 4 .1 7.9-1.4 12.1-1.3 6.3.2 12.5-.6 18.6-1.9 1-.2 2-.1 3-.1 9.8 0 19.7-.1 29.5 0 4.5 0 8.9.9 12.8 3.1 5.4 3.1 10 6.9 11.9 13.3.4 1.3 1.1 2.4 1.6 3.5-.2 26.8-.2 53.6-.2 80.9zm-32.1-38.7h-30.2c-1.5 1.2-2.8 2.2-3.6 3.9.2 3-.9 6.3 1.8 8.8 3.3 2.7 7.2 2.3 11 2.1 1.4-.1 2.8-.8 4.3-.9 5.8-.1 11.3-1.7 16.7-3.4V96.1zM117.9 34.2v19.2c-1.5 1-3.1.5-4.5.5h-50c-4.1 0-8.3-.4-12.7 1.8-.9.8-2.2 2.1-3.5 3.3v52.2c2.2 3.6 5.4 4.8 9.6 4.8 10-.2 20 .5 30-.2 8.6-.6 17.2-.8 25.8-.8 1.6 0 3.3-.3 5.3.4.5 5.8.1 11.8.3 17.9-2.2.9-4.2 1.5-6.6 1.7-22.2 1.9-44.5.8-66.8.8-8.2 0-16.3-1.5-23.4-6.6-2.4-1.8-4-4-5.2-6.4-1.8-3.7-3.1-7.6-3.1-11.8.1-17 .1-34 0-51 0-10.1 6.3-20.6 17-23.6 4.5-1.2 9-2.3 13.5-2.3 24.1-.2 48.3-.1 72.4-.1.6-.1 1 .1 1.9.2zM144.3 135.6v-18.1c.8-1 2.1-.6 3.2-.6 4.5 0 9 .1 13.5-.1 3.9-.2 7.5-1.2 9.8-4.3.7-2.6-.1-4.5-1.1-6.5-3.1-5.8-6.2-11.7-9.4-17.5-5.7-10.5-11.5-20.9-17.2-31.3-2.7-4.9-5.3-9.9-8-14.9-1.4-2.6-2.7-5.2-4.3-8.2h34.7c3.7 7.8 7.8 15.9 11.5 24.2 3.7 8.2 7.8 16.3 11.9 25 6.8-17 13.2-33.2 19.7-49.3h34.1c-.4 2.4-1.3 4.5-2.2 6.5-4.8 10-10 19.8-14.4 30-5.6 12.7-12.1 24.9-17.5 37.7-2.1 4.8-4.5 9.5-7.7 13.7-2.6 3.3-5.4 6.3-8.8 8.8-3.6 2.7-7.9 4-12.2 5-9 2-18.2.9-27.3 1.1-2.4-1.4-5.4-.6-8.3-1.2z"/>
</svg>