<?xml version="1.0" standalone="no"?>
<!DOCTYPE svg PUBLIC "-//W3C//DTD SVG 20010904//EN"
 "http://www.w3.org/TR/2001/REC-SVG-20010904/DTD/svg10.dtd">
<svg version="1.0" xmlns="http://www.w3.org/2000/svg"
 width="512.000000pt" height="512.000000pt" viewBox="0 0 512.000000 512.000000"
 preserveAspectRatio="xMidYMid meet">
<metadata>
Created by potrace 1.11, written by Peter Selinger 2001-2013
</metadata>
<g transform="translate(0.000000,512.000000) scale(0.100000,-0.100000)"
fill="#000000" stroke="none">
<path d="M2168 5026 c-10 -7 -14 -17 -10 -21 4 -4 -3 -2 -15 4 -17 9 -23 9
-23 0 0 -8 -4 -8 -15 1 -12 10 -16 8 -24 -11 -8 -20 -10 -21 -10 -5 -1 18 -2
18 -19 3 -12 -11 -22 -13 -34 -6 -11 6 -19 5 -24 -2 -5 -8 -3 -9 7 -4 8 5 10
4 6 0 -12 -14 -38 -15 -30 -2 5 8 2 8 -9 0 -8 -7 -18 -10 -21 -6 -4 3 -7 1 -7
-6 0 -7 -4 -9 -10 -6 -5 3 -10 0 -10 -7 0 -9 -3 -9 -10 2 -5 8 -10 10 -10 3 0
-6 -11 -10 -25 -9 -13 2 -22 -1 -19 -6 3 -5 0 -9 -7 -7 -27 3 -40 -1 -34 -11
4 -6 -1 -7 -10 -3 -10 3 -21 0 -26 -8 -7 -12 -9 -12 -9 1 0 11 -2 12 -8 3 -5
-7 -20 -14 -35 -15 -16 -1 -23 -6 -17 -13 5 -6 -5 -10 -30 -9 -27 0 -37 -3
-33 -12 3 -9 -2 -11 -18 -7 -15 4 -20 3 -15 -5 5 -8 1 -10 -9 -5 -10 3 -21 0
-26 -8 -4 -8 -16 -14 -26 -14 -10 -1 -17 -6 -16 -12 1 -6 -6 -9 -17 -6 -12 3
-20 0 -20 -8 0 -7 -3 -9 -7 -6 -3 4 -12 -1 -20 -11 -9 -10 -12 -11 -7 -2 5 10
-1 8 -16 -5 -15 -13 -21 -15 -16 -5 4 8 -2 4 -14 -10 -12 -14 -18 -18 -14 -10
6 12 5 13 -8 3 -8 -7 -19 -9 -23 -5 -5 4 -5 -1 -2 -10 4 -12 2 -15 -9 -11 -7
3 -14 0 -14 -6 0 -6 -5 -11 -11 -11 -5 0 -7 6 -3 13 4 6 -5 -1 -19 -16 -15
-15 -31 -26 -36 -23 -5 3 -12 -1 -15 -10 -3 -8 -10 -12 -16 -9 -6 3 -13 -1
-16 -9 -3 -9 -10 -13 -15 -10 -5 3 -9 0 -9 -6 0 -7 -7 -9 -16 -6 -8 3 -13 2
-10 -3 3 -5 -2 -15 -11 -22 -14 -12 -16 -12 -9 1 7 13 6 13 -6 0 -7 -8 -25
-21 -40 -29 -15 -8 -25 -18 -22 -23 5 -7 -10 -12 -29 -9 -5 1 -6 -2 -4 -6 3
-5 -1 -14 -9 -21 -8 -7 -14 -10 -14 -6 0 3 -7 1 -15 -6 -8 -7 -12 -16 -9 -21
3 -5 -2 -6 -11 -3 -10 4 -15 2 -13 -7 2 -8 -3 -13 -9 -12 -7 2 -13 -2 -13 -8
0 -5 -5 -7 -12 -3 -8 5 -9 2 -5 -10 4 -9 3 -14 -2 -11 -5 3 -17 -5 -25 -17
-11 -15 -16 -17 -16 -8 0 8 -9 0 -20 -17 -11 -18 -27 -33 -35 -33 -10 0 -13
-5 -9 -12 5 -8 2 -9 -10 -5 -10 4 -15 3 -11 -3 8 -13 -20 -42 -30 -32 -5 4 -5
-1 -2 -10 4 -13 1 -16 -14 -13 -11 2 -17 0 -14 -6 8 -11 -20 -41 -29 -31 -4 3
-4 -2 0 -11 4 -12 2 -17 -7 -15 -8 2 -13 -3 -11 -11 2 -9 -3 -11 -13 -7 -9 3
-13 2 -10 -4 3 -6 1 -10 -5 -10 -6 0 -8 -4 -5 -10 3 -5 -1 -10 -10 -10 -9 0
-13 -5 -10 -10 3 -6 -1 -13 -9 -16 -9 -3 -13 -10 -10 -15 3 -5 -2 -9 -10 -9
-9 0 -15 -6 -14 -12 2 -7 -2 -12 -9 -11 -7 2 -10 -4 -6 -13 3 -9 0 -14 -8 -12
-7 2 -14 -3 -15 -9 -1 -7 -2 -18 -3 -24 0 -5 -5 -8 -10 -4 -5 3 -12 1 -16 -5
-3 -5 0 -10 7 -10 10 0 9 -3 -2 -9 -8 -6 -18 -7 -22 -5 -4 3 -5 -1 -2 -9 3 -8
-2 -17 -11 -21 -9 -3 -13 -10 -10 -16 3 -6 -1 -13 -10 -16 -9 -4 -14 -12 -11
-19 3 -8 -2 -16 -10 -19 -8 -3 -14 -13 -14 -21 0 -9 -4 -13 -10 -10 -5 3 -10
-3 -10 -14 0 -12 -5 -21 -11 -21 -5 0 -7 -5 -3 -12 5 -8 2 -9 -11 -4 -15 5
-16 4 -6 -8 10 -12 8 -17 -8 -26 -12 -6 -21 -16 -21 -22 0 -6 -8 -20 -17 -31
-10 -11 -12 -17 -5 -13 20 12 14 -8 -7 -24 -11 -7 -18 -17 -16 -21 3 -4 -7
-27 -21 -53 -14 -25 -22 -51 -18 -57 4 -8 3 -9 -4 -5 -11 6 -14 1 -11 -20 0
-3 -8 -12 -18 -21 -10 -8 -11 -11 -3 -7 10 5 8 -1 -5 -16 -13 -15 -15 -21 -5
-16 8 4 4 -2 -10 -14 -14 -12 -20 -19 -14 -16 22 11 24 -23 3 -38 -12 -8 -22
-26 -23 -40 0 -14 -4 -26 -8 -26 -4 0 -5 -9 -3 -20 2 -11 -1 -23 -7 -26 -7 -5
-8 -2 -3 6 5 9 4 11 -3 6 -9 -5 -9 -13 -2 -26 13 -24 13 -31 -1 -28 -6 2 -14
-3 -17 -11 -3 -9 0 -11 9 -7 8 4 5 0 -5 -8 -14 -11 -15 -16 -6 -16 9 0 8 -5
-6 -16 -10 -8 -12 -12 -4 -8 12 6 13 5 3 -7 -9 -11 -9 -19 -2 -26 8 -8 7 -13
-2 -18 -8 -6 -10 -4 -4 5 5 9 4 11 -3 6 -9 -5 -9 -13 -2 -26 8 -15 7 -18 -3
-15 -8 4 -13 -3 -14 -15 -1 -11 2 -18 7 -15 6 3 7 -1 4 -9 -3 -9 -10 -14 -14
-11 -10 6 -8 -15 3 -32 4 -7 0 -16 -10 -22 -10 -6 -13 -11 -7 -11 6 0 11 -7
11 -15 0 -12 -3 -12 -15 -2 -13 10 -14 9 -3 -10 7 -15 8 -23 1 -23 -5 0 -10
-5 -10 -11 0 -5 5 -7 10 -4 6 3 10 2 10 -3 0 -6 -7 -13 -16 -16 -12 -5 -13
-10 -5 -19 8 -10 7 -17 -1 -25 -9 -9 -9 -12 1 -12 7 0 9 -5 6 -10 -4 -6 -11
-7 -17 -4 -7 5 -7 1 0 -11 5 -11 6 -30 2 -47 -5 -16 -5 -30 1 -34 6 -3 6 -10
1 -17 -5 -7 -8 -22 -6 -35 2 -13 0 -21 -4 -18 -4 2 -8 -6 -8 -19 0 -13 3 -22
6 -20 3 2 6 -5 6 -15 0 -10 -4 -16 -8 -14 -4 3 -8 0 -8 -5 0 -6 6 -11 13 -11
8 0 7 -4 -3 -10 -12 -8 -12 -10 -1 -10 10 0 11 -3 2 -14 -7 -9 -8 -17 -2 -20
9 -6 10 -23 0 -41 -7 -14 -4 -86 5 -108 5 -10 3 -23 -3 -31 -9 -11 -9 -16 0
-22 8 -5 10 -3 4 7 -5 8 -5 11 0 7 12 -11 13 -78 1 -78 -5 0 -2 -8 7 -18 11
-12 13 -22 6 -35 -7 -11 -7 -17 1 -17 7 0 7 -6 -1 -21 -8 -15 -8 -19 0 -15 10
7 16 -6 12 -28 -1 -4 4 -15 11 -24 10 -12 10 -14 1 -8 -7 4 -13 2 -13 -3 0 -6
5 -11 10 -11 6 0 10 -5 10 -11 0 -5 -4 -7 -10 -4 -6 3 -7 -1 -4 -9 3 -9 9 -14
13 -11 4 2 5 -9 3 -26 -3 -17 3 -40 13 -56 17 -25 17 -26 -1 -19 -17 6 -17 6
1 -14 18 -20 25 -43 26 -82 0 -10 3 -18 7 -18 4 0 9 -9 10 -20 4 -44 6 -50 16
-50 6 0 4 -5 -4 -10 -13 -8 -13 -10 2 -10 11 0 15 -5 12 -15 -4 -8 -1 -15 6
-15 9 0 9 -4 -1 -17 -10 -11 -10 -14 -1 -9 11 7 16 -6 15 -41 -1 -7 3 -11 7
-8 4 3 11 -2 14 -11 4 -10 2 -13 -7 -9 -6 4 -4 0 6 -8 18 -15 24 -32 6 -22 -6
4 -5 -2 2 -13 7 -12 16 -19 19 -17 3 2 7 -8 8 -22 1 -14 10 -32 20 -40 11 -10
12 -12 2 -8 -8 4 -6 -1 4 -9 15 -12 16 -16 5 -16 -10 0 -11 -3 -2 -8 6 -4 13
-14 15 -22 2 -8 10 -21 18 -28 13 -12 13 -13 0 -7 -10 4 -9 2 3 -8 9 -8 17
-22 17 -31 0 -9 5 -16 11 -16 5 0 7 -4 4 -10 -3 -5 -1 -10 5 -10 6 0 8 -5 5
-10 -3 -6 -1 -10 5 -10 6 0 8 -5 5 -10 -3 -6 1 -10 9 -10 9 0 16 -9 16 -20 0
-11 5 -20 12 -20 6 0 9 -3 5 -6 -3 -4 2 -14 11 -23 11 -10 12 -12 2 -6 -13 9
-13 8 0 -10 8 -11 22 -30 33 -41 10 -12 19 -31 20 -42 0 -11 5 -18 9 -16 5 3
5 10 2 16 -4 7 -2 8 5 4 6 -4 9 -12 6 -17 -4 -5 -1 -9 4 -9 6 0 10 -3 10 -8
-4 -23 3 -34 17 -28 12 4 15 2 10 -9 -3 -8 -1 -15 4 -15 6 0 10 -7 10 -15 0
-8 9 -20 20 -27 11 -7 20 -17 20 -23 0 -6 13 -21 30 -35 17 -14 30 -33 30 -42
0 -11 8 -18 19 -18 12 0 23 -11 30 -30 9 -27 20 -35 43 -31 4 0 5 -6 2 -14 -4
-10 0 -15 11 -15 9 0 13 -4 10 -10 -3 -5 -1 -10 5 -10 19 0 57 -34 52 -48 -2
-6 2 -12 8 -12 16 0 41 -26 32 -34 -3 -4 1 -4 11 0 13 4 17 1 17 -15 0 -12 5
-21 11 -21 5 0 7 4 4 10 -3 6 1 7 10 4 9 -4 13 -9 11 -12 -10 -9 45 -53 56
-46 8 5 9 1 5 -10 -4 -9 -3 -15 2 -12 5 3 14 -1 21 -9 7 -8 19 -15 27 -15 8 0
11 -5 8 -10 -3 -6 1 -10 9 -10 9 0 16 -4 16 -10 0 -5 9 -10 20 -10 11 0 20 -5
20 -11 0 -5 -5 -7 -12 -3 -7 4 -8 3 -4 -5 4 -6 12 -9 17 -6 5 4 9 1 9 -5 0 -6
4 -9 9 -5 5 3 16 -2 24 -10 9 -8 21 -15 27 -15 6 0 9 -4 6 -9 -7 -11 22 -23
36 -14 7 3 8 1 4 -5 -4 -7 -1 -12 8 -12 9 0 16 -4 16 -10 0 -5 8 -10 19 -10
19 0 45 -23 36 -32 -3 -2 2 -5 10 -5 8 0 11 5 8 11 -8 13 28 -14 39 -29 4 -5
13 -10 20 -11 19 -1 52 -16 59 -26 3 -5 15 -11 25 -12 10 -2 18 -9 16 -17 -3
-10 0 -10 12 1 13 10 16 10 16 -4 0 -17 20 -18 32 -1 4 6 8 2 8 -8 0 -10 4
-15 10 -12 5 3 10 1 10 -5 0 -6 4 -9 9 -5 5 3 17 -2 25 -11 9 -9 16 -11 16 -4
0 7 7 5 16 -4 8 -9 20 -14 25 -11 5 4 9 1 9 -4 0 -6 11 -11 25 -11 14 0 25 -6
25 -12 0 -9 4 -8 10 2 6 10 10 11 10 3 0 -7 10 -13 23 -13 13 0 28 -5 34 -11
5 -5 24 -11 41 -11 17 -1 29 -5 26 -9 -2 -4 4 -8 13 -9 52 -2 71 -6 67 -11 -2
-4 3 -10 12 -13 12 -5 15 -2 10 11 -6 15 -5 16 11 1 10 -8 24 -13 31 -11 6 3
12 -1 12 -7 0 -10 4 -10 15 0 9 7 15 8 15 2 0 -5 7 -13 16 -16 8 -3 12 -2 9 4
-3 6 1 7 9 4 9 -3 13 -10 10 -15 -3 -5 2 -6 10 -3 9 3 13 11 9 18 -4 7 -1 7 9
-1 8 -7 18 -10 21 -6 4 3 7 1 7 -5 0 -5 -5 -12 -11 -14 -7 -2 7 -4 30 -4 23 0
36 3 29 7 -7 4 -16 5 -22 2 -5 -3 -6 -1 -2 6 6 9 13 9 31 -3 17 -11 25 -12 35
-3 10 9 11 9 6 -1 -5 -8 2 -12 23 -12 36 0 45 22 39 100 -2 29 1 50 7 50 6 0
3 5 -5 10 -8 5 -10 10 -5 10 10 0 11 90 1 116 -3 7 0 15 7 17 9 3 9 9 -1 26
-10 17 -10 21 0 21 9 0 8 3 -2 10 -8 5 -10 10 -4 10 12 0 11 41 -1 59 -3 6 2
11 12 11 14 0 15 2 5 9 -16 10 -22 101 -7 101 6 0 3 5 -5 10 -8 5 -10 10 -4
10 8 0 9 13 4 39 -6 32 -4 41 9 46 14 6 14 8 -3 21 -14 10 -16 14 -5 14 12 0
12 2 0 9 -9 6 -9 10 -2 12 8 3 8 14 2 36 -7 23 -6 33 2 36 9 3 9 10 -1 26 -10
17 -10 21 0 21 9 0 8 3 -2 10 -8 5 -10 10 -4 10 7 0 8 17 4 50 -4 33 -3 50 4
50 6 0 4 5 -4 10 -8 5 -10 10 -5 10 7 0 9 15 7 35 -3 25 0 35 9 35 9 1 8 4 -3
11 -10 5 -18 17 -18 24 0 9 -10 15 -24 15 -14 0 -28 5 -31 10 -4 7 -13 6 -27
-1 -12 -6 -18 -7 -14 -1 3 5 -1 13 -10 16 -8 3 -12 2 -9 -4 3 -6 -1 -7 -9 -4
-9 3 -13 11 -9 18 4 7 1 7 -7 -1 -11 -10 -16 -9 -27 5 -8 9 -12 12 -9 5 4 -7
-1 -11 -13 -10 -11 0 -18 4 -15 8 2 4 0 10 -6 14 -5 3 -10 0 -10 -7 0 -11 -2
-11 -9 0 -4 7 -14 14 -22 15 -8 2 -20 6 -26 10 -7 5 -17 5 -23 2 -5 -3 -10 1
-10 11 0 13 -3 14 -15 4 -12 -10 -15 -10 -15 0 0 7 -7 10 -16 6 -8 -3 -12 -2
-9 4 8 12 -35 29 -54 22 -9 -3 -12 -1 -7 6 4 7 1 12 -8 12 -9 0 -16 5 -16 10
0 6 -9 10 -20 10 -11 0 -20 5 -20 11 0 5 -5 7 -10 4 -5 -3 -10 -1 -10 5 0 6
-4 8 -10 5 -5 -3 -10 1 -10 9 0 10 -7 13 -20 11 -11 -2 -18 0 -15 4 2 5 -3 15
-12 22 -14 12 -16 12 -9 -1 4 -8 -2 -4 -13 9 -12 13 -21 19 -21 15 0 -5 -7 2
-16 14 -10 14 -22 21 -31 18 -12 -5 -14 -1 -10 14 3 11 1 18 -3 15 -5 -3 -15
1 -23 9 -8 8 -17 12 -21 9 -3 -4 -6 1 -6 10 0 9 -5 19 -12 23 -7 5 -8 3 -3 -7
8 -12 6 -12 -8 0 -9 7 -17 20 -17 27 0 8 -7 14 -15 14 -9 0 -20 10 -25 23 -5
13 -9 16 -10 7 0 -13 -2 -13 -9 0 -6 8 -7 18 -5 22 3 4 -2 8 -11 8 -9 0 -13 5
-10 10 3 6 1 10 -4 10 -6 0 -11 7 -11 15 0 8 -9 20 -20 27 -11 7 -20 20 -20
28 0 13 -1 13 -10 0 -8 -13 -10 -12 -10 3 0 10 -7 25 -15 34 -8 8 -12 20 -8
26 4 6 0 8 -9 4 -10 -3 -15 0 -14 11 0 9 -4 16 -11 15 -8 -2 -10 4 -6 14 4 11
3 14 -6 9 -8 -6 -11 -2 -9 10 2 12 -2 18 -11 16 -11 -2 -12 0 -3 11 9 10 7 16
-8 27 -10 7 -17 17 -14 22 3 4 1 8 -5 8 -6 0 -7 7 -4 17 4 11 3 14 -5 9 -11
-6 -18 19 -13 47 0 4 -6 7 -14 7 -8 0 -15 5 -15 11 0 5 4 8 8 5 5 -3 9 1 9 9
0 8 -4 12 -8 10 -3 -3 -12 1 -18 9 -9 11 -9 15 1 19 9 4 10 6 1 6 -7 1 -17 11
-23 23 -11 22 -10 22 4 4 19 -23 20 -17 4 19 -6 14 -15 25 -20 25 -11 0 -6 23
7 32 6 5 3 8 -7 8 -11 0 -15 6 -11 20 3 11 1 20 -4 20 -5 0 -10 12 -11 27 -1
15 -8 30 -15 35 -8 5 -8 8 -1 8 14 0 13 32 -1 42 -6 5 -5 8 3 8 6 0 12 5 12
11 0 5 -5 7 -11 3 -8 -5 -10 1 -7 19 3 15 0 29 -6 32 -7 3 -7 7 2 11 10 5 9
11 -5 27 -10 11 -12 17 -5 13 13 -8 18 19 4 28 -10 6 -9 36 2 54 4 6 3 12 -1
12 -5 0 -9 9 -9 19 0 11 4 17 8 15 12 -8 9 11 -4 24 -9 9 -7 13 6 18 14 5 15
9 4 15 -11 8 -11 10 1 18 10 6 10 10 1 16 -9 6 -9 10 1 16 10 6 11 9 2 9 -7 0
-13 5 -13 11 0 6 7 8 16 5 13 -5 14 -3 6 6 -17 22 -18 24 -2 43 13 17 13 18 0
10 -12 -7 -13 -6 -3 6 10 12 10 18 0 28 -9 10 -8 11 8 5 18 -7 18 -6 6 9 -10
13 -10 17 -1 17 7 0 10 7 6 15 -3 8 0 15 7 15 9 0 8 3 -1 9 -11 7 -11 9 1 14
10 4 13 13 10 28 -4 15 -3 20 6 15 6 -4 11 -4 10 1 -1 4 0 13 1 18 1 6 3 21 3
35 1 15 7 24 15 22 10 -2 10 2 2 17 -8 16 -5 24 18 42 15 12 19 19 9 16 -14
-5 -16 -3 -8 12 6 10 7 22 3 27 -4 5 2 2 12 -6 11 -8 17 -10 13 -4 -8 14 16
77 26 69 4 -3 5 -2 2 2 -3 3 1 13 8 21 10 13 9 14 -3 7 -11 -6 -10 -3 3 12 9
11 14 23 10 27 -5 4 -1 6 7 4 8 -1 14 3 12 10 -1 6 3 12 9 12 6 0 9 7 5 15 -3
9 3 19 15 26 11 6 18 17 15 24 -3 10 0 12 11 8 11 -4 14 -3 9 5 -4 7 -1 15 8
18 9 3 13 10 10 15 -3 5 2 9 10 9 10 0 13 6 9 17 -4 11 -3 14 5 9 7 -4 12 -1
12 6 0 17 36 49 45 40 3 -4 3 2 -1 12 -5 12 -4 17 2 13 6 -3 38 23 73 59 34
35 66 62 71 59 6 -4 7 1 3 11 -4 11 -2 15 4 11 6 -4 13 0 17 8 3 8 12 15 19
15 8 0 22 10 31 23 9 12 14 15 10 7 -3 -8 6 -1 20 15 19 22 24 25 20 10 -6
-19 -5 -19 10 1 8 12 27 25 41 28 14 4 23 11 20 16 -6 10 8 14 34 11 7 -2 10
2 7 7 -3 5 1 15 8 21 10 9 16 9 21 1 4 -7 15 -2 30 14 16 17 25 21 28 13 4 -9
8 -9 15 2 6 8 15 10 22 6 9 -6 11 -4 5 5 -6 10 -4 12 9 7 10 -4 15 -3 11 3 -3
6 5 10 18 10 14 0 28 7 31 16 5 13 9 14 21 4 14 -11 19 -7 16 13 -1 4 8 3 18
-3 14 -7 22 -7 27 2 5 7 3 8 -6 3 -9 -6 -11 -4 -5 4 5 9 10 10 18 2 8 -8 16
-6 31 7 14 12 17 13 11 2 -8 -13 -6 -13 8 -2 9 8 21 11 27 7 5 -3 10 2 11 12
0 16 1 16 9 -2 5 -11 9 -15 9 -9 1 7 8 15 17 18 9 4 13 2 8 -5 -4 -8 0 -7 15
0 12 7 25 10 29 7 4 -2 7 11 7 30 0 19 -4 34 -10 34 -5 0 -2 5 7 11 9 5 15 16
12 24 -4 8 -9 13 -13 11 -4 -3 -7 4 -7 15 0 10 3 19 6 19 6 0 3 97 -4 116 -3
7 0 15 7 17 9 3 9 9 -1 26 -10 17 -10 21 0 21 9 0 8 3 -2 10 -8 5 -10 10 -4
10 12 0 11 41 -1 59 -3 6 2 11 12 11 14 0 15 2 5 9 -16 10 -22 101 -7 101 6 0
3 5 -5 10 -8 5 -10 10 -4 10 8 0 9 13 4 39 -6 32 -4 41 9 46 14 6 14 8 -3 21
-14 10 -16 14 -5 14 12 0 12 2 0 9 -9 6 -9 10 -2 12 8 3 8 14 2 36 -7 23 -6
33 2 36 9 3 9 10 -1 26 -10 17 -10 21 0 21 9 0 8 3 -2 10 -8 5 -10 10 -4 10 7
0 8 17 4 50 -4 33 -3 50 4 50 6 0 4 5 -4 10 -8 5 -10 10 -4 10 7 0 9 15 4 44
-6 37 -4 43 9 39 11 -3 10 0 -3 11 -11 9 -15 16 -9 16 6 0 9 8 6 18 -3 15 -15
19 -56 19 -34 1 -46 -1 -36 -8 9 -5 10 -9 2 -9 -6 0 -14 4 -17 9 -9 14 -32 8
-57 -15 l-22 -19 12 23 c13 25 12 26 -11 8z"/>
<path d="M2772 5023 c8 -9 7 -13 -2 -13 -9 0 -9 -4 1 -17 12 -15 12 -16 -6
-10 -20 7 -20 7 -1 -8 11 -8 14 -15 8 -15 -10 0 -10 -5 -1 -21 9 -17 8 -23 -2
-30 -11 -7 -11 -9 1 -9 13 0 13 -1 0 -10 -13 -9 -13 -11 0 -20 13 -9 13 -10 0
-10 -9 0 -11 -3 -5 -8 6 -4 11 -15 12 -25 1 -13 -4 -17 -15 -12 -16 6 -16 5
-1 -10 12 -12 14 -26 9 -55 -4 -21 -3 -46 3 -55 6 -12 6 -20 -3 -25 -9 -6 -9
-9 1 -13 10 -4 10 -6 2 -6 -7 -1 -13 -8 -13 -17 0 -8 4 -13 8 -10 4 2 8 -4 8
-15 0 -10 -3 -19 -6 -19 -3 0 -6 -11 -6 -25 -1 -14 1 -23 5 -20 4 2 7 -6 7
-18 -1 -12 -8 -25 -16 -29 -12 -5 -12 -7 3 -7 9 -1 17 -6 17 -12 0 -5 -4 -8
-8 -5 -5 3 -9 -1 -9 -9 0 -8 3 -12 7 -10 7 4 3 -111 -5 -132 -2 -7 1 -13 8
-13 8 0 6 -4 -3 -10 -8 -5 -10 -10 -5 -10 6 0 11 -9 11 -20 0 -11 -4 -20 -9
-20 -5 0 -4 -6 2 -13 6 -8 9 -16 7 -18 -7 -8 -14 -79 -8 -75 4 3 8 -4 8 -15 0
-10 -3 -19 -6 -19 -3 0 -6 -11 -6 -25 -1 -14 1 -23 5 -21 3 2 6 -7 6 -20 0
-14 -6 -24 -15 -25 -10 0 -8 -3 5 -9 11 -5 15 -9 8 -9 -6 -1 -9 -10 -6 -21 3
-11 10 -17 17 -13 6 4 4 -2 -4 -12 -8 -10 -10 -16 -3 -12 6 4 13 1 16 -5 3
-10 7 -10 18 -1 9 7 20 8 29 3 8 -5 18 -6 24 -3 5 3 6 1 3 -4 -4 -6 0 -14 9
-17 8 -3 12 -2 9 3 -3 5 0 13 6 17 7 4 9 3 6 -2 -3 -6 -2 -16 4 -24 6 -10 9
-11 9 -3 0 9 7 10 24 3 13 -5 27 -6 30 -3 3 4 6 1 6 -6 0 -7 4 -10 9 -7 5 3
14 -1 21 -10 7 -8 19 -13 27 -10 7 3 13 0 13 -7 0 -8 4 -7 10 3 8 12 10 12 16
-3 3 -9 17 -17 29 -17 13 0 27 -5 30 -10 4 -6 11 -8 16 -5 5 4 9 -1 9 -11 0
-13 3 -14 14 -5 11 9 15 8 20 -5 3 -9 13 -14 21 -10 9 3 19 -3 25 -15 6 -11
15 -17 20 -14 5 3 21 -6 37 -20 52 -46 53 -47 53 -34 0 7 12 -1 26 -17 15 -16
23 -22 19 -14 -4 9 -1 9 8 -2 8 -10 19 -18 26 -18 6 0 11 -7 11 -16 0 -8 3
-13 8 -11 4 3 13 -1 20 -9 7 -8 9 -14 5 -14 -4 0 0 -5 10 -11 9 -5 22 -7 28
-3 8 4 9 -1 4 -16 -4 -14 -3 -20 3 -16 12 7 102 -73 102 -91 0 -7 5 -13 11
-13 5 0 7 -5 3 -12 -5 -8 -2 -9 10 -5 11 5 15 3 10 -5 -4 -6 4 -20 19 -32 14
-12 27 -28 29 -36 4 -20 21 -39 31 -33 4 2 7 -8 7 -22 0 -14 4 -24 8 -21 5 3
21 -22 36 -54 16 -33 32 -60 38 -60 5 0 7 -4 3 -9 -3 -5 0 -13 6 -16 5 -4 8
-13 5 -21 -3 -8 1 -14 10 -14 8 0 12 -4 9 -10 -3 -5 -2 -10 4 -10 6 0 8 -7 5
-15 -3 -8 1 -22 10 -31 9 -8 14 -20 11 -25 -4 -5 -1 -9 5 -9 6 0 8 -4 5 -10
-3 -5 0 -10 7 -10 9 0 9 -3 -2 -10 -12 -7 -12 -10 -1 -10 7 0 11 -6 7 -15 -3
-8 2 -19 12 -24 15 -10 15 -10 -2 -11 -20 0 -20 0 0 -16 10 -8 12 -13 4 -9
-13 6 -13 5 0 -7 9 -7 15 -28 15 -45 0 -20 5 -33 13 -33 15 0 16 -12 0 -28 -7
-7 -8 -12 -2 -12 6 0 9 -16 8 -35 -2 -20 1 -33 6 -30 9 6 4 -41 -7 -58 -3 -6
-1 -7 5 -3 6 3 13 2 17 -4 3 -5 2 -10 -2 -10 -5 0 -9 -9 -10 -20 -1 -13 3 -18
10 -14 7 3 3 -2 -7 -10 -17 -14 -18 -16 -3 -16 14 0 15 -4 7 -26 -13 -33 -13
-36 3 -29 6 4 3 -1 -7 -9 -16 -13 -16 -16 -5 -16 16 0 19 -26 5 -49 -5 -7 -8
-33 -8 -57 1 -24 -3 -46 -9 -50 -6 -4 -6 -11 2 -20 9 -11 8 -14 -2 -14 -11 0
-11 -2 1 -10 8 -5 10 -10 3 -10 -6 0 -9 -9 -6 -20 3 -12 0 -20 -6 -20 -7 0
-10 -4 -6 -9 3 -5 1 -12 -4 -16 -5 -3 -10 -13 -10 -23 -1 -40 -5 -52 -15 -52
-6 0 -6 -4 2 -8 10 -7 10 -14 -1 -35 -8 -15 -17 -24 -20 -20 -4 3 -4 -4 -2
-16 2 -14 -2 -24 -11 -28 -13 -5 -13 -7 -3 -14 11 -6 10 -9 -4 -15 -9 -3 -17
-10 -17 -16 0 -5 6 -6 13 -3 6 4 4 0 -6 -8 -12 -10 -14 -16 -6 -19 7 -2 5 -9
-7 -18 -14 -12 -16 -12 -9 -1 5 10 4 12 -4 7 -9 -6 -9 -11 -1 -21 9 -10 6 -16
-10 -25 -12 -6 -19 -17 -17 -23 2 -7 -3 -18 -10 -26 -8 -7 -12 -20 -9 -27 3
-8 0 -13 -7 -11 -7 1 -11 -6 -11 -15 1 -10 -2 -15 -7 -12 -8 5 -13 -9 -10 -28
0 -5 -5 -7 -12 -5 -6 1 -11 -6 -11 -15 1 -10 -2 -16 -6 -15 -4 1 -9 -2 -10 -8
-1 -5 -13 -20 -27 -32 -13 -13 -22 -23 -19 -23 4 0 -4 -10 -16 -22 -13 -13
-27 -22 -31 -20 -5 1 -6 -2 -3 -7 10 -16 -5 -40 -20 -34 -8 3 -14 1 -12 -5 4
-12 -66 -82 -82 -82 -6 0 -9 -4 -6 -8 3 -5 -8 -16 -25 -26 -16 -10 -26 -22
-23 -28 5 -7 2 -8 -6 -3 -7 5 -20 -2 -34 -17 -11 -13 -17 -18 -12 -11 6 10 4
12 -8 7 -9 -3 -16 -12 -16 -19 0 -8 -5 -17 -12 -21 -7 -5 -8 -2 -3 7 4 8 -5 1
-20 -14 -22 -23 -30 -26 -36 -15 -7 10 -9 9 -9 -4 0 -9 -5 -20 -12 -24 -7 -5
-9 -2 -4 7 4 8 1 6 -7 -3 -8 -10 -17 -15 -20 -11 -4 3 -7 1 -7 -6 0 -7 -4 -10
-9 -7 -5 3 -11 -1 -14 -9 -4 -8 -15 -12 -26 -10 -11 2 -22 -3 -25 -11 -3 -8
-15 -14 -26 -14 -14 0 -19 -4 -14 -13 6 -9 4 -9 -8 1 -13 10 -17 10 -21 -3 -4
-8 -12 -12 -20 -9 -7 2 -21 -4 -31 -15 -10 -11 -25 -17 -37 -14 -12 3 -19 0
-19 -8 0 -11 -2 -11 -10 1 -7 11 -10 11 -10 2 0 -7 -4 -10 -10 -7 -5 3 -10 0
-10 -7 0 -11 -2 -10 -9 0 -6 11 -10 10 -15 -4 -5 -13 -9 -15 -18 -6 -14 14
-32 16 -24 3 3 -5 -1 -11 -8 -14 -8 -3 -16 -1 -18 4 -2 6 -11 7 -21 4 -9 -4
-14 -12 -10 -19 4 -6 -1 -5 -10 3 -11 9 -17 10 -17 2 0 -6 -7 -11 -16 -11 -8
0 -12 -5 -9 -10 4 -6 12 -8 18 -4 7 3 4 -1 -5 -9 -17 -14 -26 -43 -10 -33 4 2
8 -4 8 -15 0 -10 -3 -19 -6 -19 -3 0 -6 -11 -6 -25 -1 -14 1 -23 5 -20 4 2 7
-6 7 -18 -1 -12 -8 -25 -16 -29 -12 -5 -12 -7 3 -7 9 -1 17 -6 17 -12 0 -5 -4
-8 -8 -5 -5 3 -9 -1 -9 -9 0 -8 3 -12 7 -10 7 4 3 -111 -5 -133 -2 -6 1 -12 8
-12 8 0 6 -4 -3 -10 -8 -5 -10 -10 -5 -10 6 0 11 -9 11 -20 0 -11 -4 -20 -9
-20 -5 0 -4 -6 2 -13 6 -8 9 -16 7 -18 -7 -8 -14 -79 -8 -75 4 3 8 -4 8 -15 0
-10 -3 -19 -6 -19 -3 0 -6 -11 -6 -25 -1 -14 1 -23 5 -21 3 2 6 -7 6 -20 0
-14 -6 -24 -15 -25 -10 0 -8 -3 5 -9 11 -5 14 -9 7 -9 -10 -1 -10 -6 -1 -22 9
-17 8 -23 -2 -30 -11 -7 -11 -9 1 -9 13 0 13 -1 0 -10 -13 -9 -13 -11 0 -20
13 -9 13 -10 0 -10 -9 0 -11 -3 -5 -8 6 -4 11 -15 12 -25 1 -13 -4 -17 -15
-12 -16 6 -16 5 -1 -10 12 -12 14 -26 9 -55 -4 -21 -3 -46 3 -55 7 -12 5 -20
-4 -26 -12 -7 -11 -9 1 -9 11 0 12 -2 3 -8 -9 -6 -10 -17 -4 -38 4 -16 6 -35
4 -41 -4 -10 8 -12 41 -10 26 2 49 7 53 10 3 4 11 7 17 7 6 0 4 -5 -4 -10 -13
-8 -12 -10 3 -10 9 0 17 5 17 11 0 5 5 7 10 4 6 -4 16 -3 23 2 7 5 19 9 27 8
8 0 21 6 28 15 8 8 11 10 8 3 -4 -6 -2 -14 4 -18 5 -3 10 -2 10 3 0 5 11 12
25 14 14 3 25 1 25 -6 0 -7 3 -7 8 1 4 7 18 11 30 8 12 -2 25 1 28 7 4 6 2 8
-4 4 -6 -3 -13 -2 -17 3 -6 11 27 7 47 -5 7 -4 8 -3 4 4 -4 7 0 12 11 13 31 2
38 4 60 17 15 8 24 9 28 1 5 -6 12 -4 21 8 11 14 13 15 14 3 1 -13 2 -13 13 0
7 9 22 15 34 14 12 -1 20 3 17 7 -3 5 2 10 10 10 9 1 19 3 24 4 4 2 17 6 30
10 12 4 22 12 22 19 0 6 5 4 10 -4 7 -11 10 -11 10 -2 0 7 5 10 10 7 6 -3 10
-1 10 5 0 6 4 8 10 5 12 -7 52 19 45 28 -3 4 0 3 6 -2 8 -7 18 -3 30 12 10 12
18 16 19 10 0 -7 -5 -13 -12 -13 -6 0 -9 -3 -6 -6 4 -3 17 2 30 10 14 9 28 13
33 9 4 -5 5 -2 1 5 -4 6 -2 12 4 12 6 0 8 5 4 12 -4 6 -3 8 4 5 14 -10 43 3
36 15 -4 6 4 5 16 -2 12 -7 20 -8 17 -3 -6 10 14 28 33 28 8 0 14 6 12 14 -3
12 -1 12 15 1 10 -8 15 -11 11 -6 -10 12 15 34 31 28 9 -3 12 -1 7 6 -5 8 -1
10 10 5 13 -5 16 -3 11 10 -4 11 -2 14 9 10 7 -3 14 0 14 6 0 6 9 11 21 11 11
0 17 5 14 10 -3 6 1 10 9 10 9 0 16 5 16 12 0 6 3 8 7 5 3 -4 12 1 20 11 8 9
12 11 8 5 -4 -9 -1 -11 9 -7 9 3 13 10 10 15 -5 9 10 13 30 10 5 -1 3 5 -4 14
-11 13 -10 15 3 10 8 -4 18 -1 22 4 3 6 11 8 17 5 6 -4 8 -3 5 3 -6 9 45 66
57 64 19 -3 26 1 26 15 0 8 5 12 10 9 6 -3 13 1 16 9 3 9 10 13 15 10 5 -3 9
2 9 10 0 9 6 16 13 16 15 0 53 41 49 53 -1 5 2 6 7 3 13 -8 34 21 26 35 -5 8
-1 8 15 -1 15 -8 20 -8 16 -1 -4 6 2 23 13 37 12 15 21 24 21 20 0 -4 13 7 30
25 16 18 27 36 24 41 -3 4 3 5 12 1 14 -5 16 -3 11 11 -4 10 -3 15 3 11 11 -7
32 29 22 41 -4 5 1 2 11 -6 10 -7 17 -9 16 -4 -3 20 2 35 10 29 5 -3 12 -1 16
5 3 5 1 10 -4 10 -17 0 22 40 39 41 9 0 10 2 3 5 -8 4 -1 17 18 37 16 17 27
37 24 44 -2 8 -1 12 3 10 9 -5 42 29 35 37 -3 2 11 21 31 42 19 20 33 40 31
44 -3 4 5 20 17 36 13 16 16 25 8 20 -8 -4 -7 -1 3 7 9 8 17 22 17 31 0 10 5
14 10 11 6 -3 10 -2 10 4 0 5 -6 12 -12 14 -7 3 -2 6 12 6 20 1 22 3 10 11
-10 6 -11 10 -2 10 6 0 12 9 12 20 0 10 8 24 18 29 9 6 13 11 7 11 -5 0 -3 5
5 10 11 7 11 10 2 10 -7 0 -10 5 -7 10 4 6 10 8 15 5 4 -3 11 2 14 11 4 10 2
13 -7 8 -6 -4 -3 3 8 16 11 13 14 20 7 16 -11 -7 -11 -4 0 15 7 13 20 30 28
37 8 7 10 11 3 8 -7 -4 -9 1 -6 14 3 11 10 20 15 20 5 0 7 4 3 9 -3 5 -1 12 5
16 6 4 8 11 5 16 -4 5 -1 9 6 9 7 0 9 3 6 7 -4 3 1 15 10 25 16 18 16 19 -3
13 -17 -6 -16 -4 4 13 15 14 18 22 10 25 -10 4 -10 8 1 15 8 6 12 19 9 30 -4
14 -2 19 8 15 9 -3 12 2 8 22 -3 15 -1 24 4 21 5 -3 8 5 7 17 -2 28 5 48 15
42 4 -2 6 8 4 23 -1 14 3 33 9 41 10 12 9 13 -3 6 -12 -7 -13 -6 -4 6 6 8 11
30 10 51 -1 29 2 34 12 25 10 -8 12 -7 10 4 -2 8 -7 17 -13 21 -6 5 -5 8 3 8
9 0 12 10 9 29 -4 24 -2 29 11 23 15 -5 15 -4 3 11 -11 14 -11 20 -1 32 10 12
10 15 -1 15 -11 0 -11 2 1 10 10 6 11 10 3 10 -7 0 -13 5 -13 11 0 5 4 7 10 4
6 -3 7 1 4 9 -3 9 -1 16 6 16 6 0 8 5 3 13 -11 17 -10 41 2 49 6 5 4 8 -5 8
-13 0 -13 1 0 10 11 7 12 12 4 20 -15 15 -6 52 10 43 6 -4 5 1 -3 11 -13 15
-13 19 0 27 9 6 10 9 2 9 -14 0 -12 47 2 70 5 9 4 11 -3 6 -7 -4 -12 -1 -12 8
0 9 6 16 13 16 8 0 8 3 1 8 -6 4 -10 18 -10 32 0 14 -3 31 -8 38 -4 6 -3 12 2
12 14 0 7 41 -9 51 -11 7 -11 9 4 9 14 0 16 4 9 18 -5 9 -7 23 -4 31 3 9 0 11
-8 6 -9 -6 -11 -4 -5 6 11 17 14 49 5 49 -4 0 -6 14 -4 31 2 18 0 28 -6 24 -6
-4 -6 3 0 20 7 17 7 24 0 20 -6 -3 -10 -1 -10 4 0 19 -2 26 -13 46 -9 18 -9
19 7 6 14 -12 16 -12 10 3 -3 9 -10 16 -14 16 -5 0 -6 10 -2 22 4 15 2 19 -8
13 -9 -6 -10 -4 -3 10 11 19 -3 73 -22 87 -6 5 -5 8 3 8 10 0 10 4 -2 16 -17
17 -21 29 -7 20 4 -3 6 6 3 19 -2 14 -9 25 -14 25 -5 0 -8 9 -6 20 2 10 -6 26
-17 35 -18 13 -18 14 -2 9 17 -6 18 -5 5 17 -7 13 -17 27 -22 30 -4 4 -3 10 4
14 8 5 6 11 -7 22 -11 9 -12 12 -3 8 9 -4 8 -1 -3 8 -10 9 -18 18 -18 21 3 24
0 36 -9 31 -6 -3 -7 1 -4 10 4 9 -1 22 -12 31 -18 14 -18 14 1 8 19 -5 19 -5
3 9 -10 8 -18 19 -18 26 0 6 -5 11 -11 11 -8 0 -8 5 1 15 10 12 10 15 -3 15
-11 0 -14 5 -10 17 4 11 3 14 -5 9 -11 -7 -16 7 -15 42 1 6 -3 12 -8 12 -5 0
-9 7 -9 15 0 9 -7 18 -15 21 -8 4 -12 10 -9 15 3 5 0 9 -6 9 -6 0 -9 4 -5 9 3
5 -2 16 -10 24 -8 9 -15 22 -15 31 0 8 -9 17 -19 21 -12 4 -18 12 -14 20 3 8
-2 18 -11 21 -9 3 -16 10 -16 16 0 5 6 6 13 2 6 -3 1 4 -13 17 -14 13 -19 20
-11 14 12 -9 12 -7 1 12 -8 12 -18 19 -22 17 -4 -3 -8 2 -8 10 0 9 -4 16 -10
16 -5 0 -10 7 -10 15 0 8 -4 15 -10 15 -5 0 -10 7 -10 15 0 9 -7 18 -15 21 -8
4 -13 10 -10 14 3 5 -4 11 -15 15 -11 4 -18 10 -15 15 3 5 -11 25 -30 45 -20
19 -33 40 -30 45 3 6 -1 10 -9 10 -9 0 -16 5 -16 11 0 5 -5 7 -12 3 -6 -4 -8
-3 -5 3 9 14 -43 74 -57 66 -6 -3 -8 -3 -4 1 3 4 -10 23 -28 42 -19 19 -32 39
-29 44 3 5 -3 7 -14 5 -14 -3 -24 4 -33 23 -7 14 -23 31 -35 38 -13 6 -20 14
-16 17 3 4 -1 7 -10 7 -10 0 -17 7 -17 16 0 11 -5 14 -17 10 -10 -4 -14 -4
-11 0 10 9 -17 34 -36 34 -9 0 -15 6 -13 13 1 6 -4 11 -10 10 -7 -2 -13 5 -13
15 0 14 -2 15 -10 2 -8 -12 -10 -12 -10 -1 0 16 -34 48 -61 56 -11 4 -19 11
-19 17 0 6 -3 9 -6 5 -4 -3 -12 -1 -20 6 -34 31 -44 37 -59 37 -9 0 -14 4 -11
9 3 5 -4 11 -15 14 -13 4 -18 10 -14 17 6 9 2 9 -14 1 -18 -10 -20 -9 -14 6 5
12 2 15 -9 10 -10 -3 -19 0 -22 9 -3 8 -13 14 -21 14 -9 0 -13 4 -10 10 3 5 0
7 -8 4 -8 -3 -21 2 -30 10 -8 8 -17 12 -21 9 -3 -4 -6 -1 -6 6 0 7 -4 9 -10 6
-5 -3 -10 -1 -10 4 0 6 -9 11 -20 11 -11 0 -20 6 -20 13 0 8 -4 7 -10 -3 -8
-13 -10 -12 -10 3 0 10 -4 16 -9 12 -5 -3 -13 0 -16 6 -4 5 -13 8 -21 5 -8 -3
-14 0 -14 7 0 7 -10 14 -22 14 -13 1 -24 7 -26 12 -2 5 -10 7 -18 4 -8 -3 -14
0 -14 7 0 6 -4 9 -9 6 -13 -8 -42 4 -35 15 3 5 -3 6 -12 2 -10 -4 -15 -2 -11
3 3 6 -10 11 -31 12 -20 2 -44 9 -53 17 -17 16 -33 20 -25 7 3 -5 -1 -9 -9 -9
-8 0 -13 3 -10 5 10 10 -16 30 -34 25 -10 -3 -22 0 -25 6 -4 6 -13 11 -19 11
-7 0 -6 -4 3 -10 8 -5 11 -10 5 -10 -5 1 -18 7 -28 15 -11 7 -25 11 -33 8 -8
-3 -14 1 -14 8 0 7 -3 9 -7 6 -3 -4 -13 -1 -21 6 -13 10 -15 9 -9 -8 6 -17 5
-18 -5 -4 -7 9 -19 14 -27 11 -9 -3 -11 0 -6 8 6 9 3 9 -14 1 -18 -10 -21 -9
-22 6 0 11 -3 13 -6 5 -4 -10 -8 -10 -21 0 -14 11 -15 10 -9 -7 7 -18 6 -19
-6 -3 -8 10 -17 15 -20 11 -4 -3 -7 0 -8 8 0 8 -4 6 -9 -6 -7 -17 -9 -17 -9
-2 -1 20 -12 22 -30 5 -11 -11 -13 -10 -8 4 6 16 4 17 -38 8 -5 -1 -12 -1 -15
0 -3 1 -22 3 -42 4 -29 2 -35 -1 -26 -11z m1903 -3752 c3 -5 2 -12 -3 -15 -5
-3 -9 1 -9 9 0 17 3 19 12 6z"/>
<path d="M3580 3500 c0 -5 5 -10 11 -10 5 0 7 5 4 10 -3 6 -8 10 -11 10 -2 0
-4 -4 -4 -10z"/>
<path d="M2438 3236 c-10 -7 -14 -17 -10 -22 4 -5 -3 0 -15 10 -20 17 -23 17
-29 2 -3 -9 -10 -14 -14 -11 -14 9 -40 -6 -33 -19 4 -6 -1 -5 -10 3 -13 10
-17 10 -17 1 0 -7 -7 -10 -16 -6 -8 3 -13 2 -10 -3 3 -5 -1 -12 -10 -15 -10
-4 -13 -2 -9 7 4 6 1 5 -7 -4 -7 -9 -17 -18 -23 -20 -5 -2 -9 -7 -8 -10 1 -4
-5 -5 -15 -2 -9 2 -26 -3 -37 -12 -19 -16 -19 -16 5 -5 l25 11 -25 -20 c-13
-11 -27 -19 -30 -19 -19 2 -30 -4 -27 -14 1 -7 -5 -12 -13 -13 -8 0 -14 -6
-13 -13 2 -7 -4 -12 -13 -12 -8 0 -13 -4 -10 -9 4 -5 -6 -14 -21 -19 -16 -6
-22 -11 -14 -11 9 -1 6 -8 -9 -21 -13 -11 -19 -20 -14 -20 5 0 2 -6 -7 -13 -8
-7 -18 -20 -22 -30 -4 -10 -12 -15 -18 -11 -7 4 -7 -1 1 -16 8 -15 8 -20 1
-16 -6 4 -11 2 -11 -4 0 -6 -6 -8 -12 -4 -7 4 -10 4 -6 -1 4 -4 2 -17 -4 -29
-10 -20 -10 -20 7 -6 17 14 17 14 5 -7 -8 -12 -18 -19 -23 -16 -5 3 -7 0 -5
-8 3 -8 -2 -20 -11 -27 -9 -8 -10 -11 -3 -7 6 3 12 1 12 -4 0 -6 -5 -11 -11
-11 -5 0 -7 -5 -4 -10 4 -6 1 -17 -5 -25 -10 -12 -10 -15 1 -15 10 -1 9 -5 -4
-14 -13 -10 -15 -16 -7 -21 9 -6 9 -10 -1 -16 -10 -6 -10 -13 -1 -33 10 -22 9
-24 -5 -19 -11 4 -14 2 -11 -8 3 -8 12 -13 19 -11 8 2 6 -5 -6 -19 -11 -12
-15 -20 -10 -16 7 3 12 -17 13 -56 1 -35 8 -64 15 -69 9 -6 9 -10 -3 -18 -13
-8 -12 -10 5 -11 l20 0 -20 -9 c-19 -8 -19 -9 -1 -9 15 -1 16 -4 6 -16 -11
-13 -10 -14 4 -9 13 5 17 2 14 -12 -2 -11 2 -18 7 -17 6 1 12 -10 13 -25 1
-14 8 -29 15 -34 9 -6 8 -8 -2 -8 -11 0 -9 -4 5 -15 10 -8 15 -15 10 -15 -6 0
-1 -7 10 -15 10 -8 15 -15 11 -15 -4 0 -2 -6 5 -14 7 -8 17 -11 22 -8 5 3 6 0
3 -5 -8 -12 27 -56 36 -46 4 3 5 -4 2 -15 -2 -15 0 -19 11 -15 9 3 14 -1 14
-13 0 -16 2 -17 10 -4 8 13 10 12 10 -3 0 -11 9 -21 20 -24 11 -3 20 -11 20
-17 0 -7 15 -16 33 -22 18 -5 31 -15 29 -23 -2 -9 3 -11 13 -7 9 3 18 -1 21
-9 4 -8 10 -12 15 -9 16 9 49 -7 49 -24 0 -15 2 -15 10 -2 7 11 10 11 10 2 0
-7 4 -11 9 -7 5 3 12 1 16 -4 3 -6 13 -7 22 -4 10 4 14 2 10 -4 -3 -5 0 -10 8
-10 8 0 15 5 15 11 0 7 3 6 8 -1 4 -7 22 -13 40 -15 18 -1 32 -6 32 -11 0 -5
7 -4 15 3 11 9 15 9 15 1 0 -7 5 -9 13 -4 18 11 37 12 37 2 0 -6 8 -5 20 1 15
8 20 8 20 -2 0 -6 7 -3 16 8 8 10 13 13 9 7 -4 -8 0 -13 10 -13 9 0 13 4 10
10 -3 6 1 7 10 4 8 -4 23 0 32 7 15 12 16 12 9 -6 -6 -17 -3 -16 20 5 15 14
24 19 20 13 -4 -7 -3 -13 2 -13 6 0 12 7 16 15 3 8 12 12 21 9 8 -3 15 -1 15
5 0 6 5 11 11 11 5 0 7 -6 4 -12 -4 -7 0 -5 8 4 8 10 17 15 20 11 4 -3 7 -1 7
5 0 7 5 12 11 12 5 0 7 -6 3 -12 -4 -8 -3 -10 2 -5 5 5 10 13 10 18 1 5 2 12
3 15 0 4 8 1 17 -6 8 -8 14 -9 12 -4 -2 5 1 10 5 11 4 1 21 17 38 35 21 23 28
27 23 13 -9 -25 5 -13 20 17 6 12 22 25 36 29 14 4 19 7 11 8 -8 1 0 13 19 30
22 18 30 33 25 41 -6 9 -4 11 4 6 8 -5 14 0 18 13 3 12 9 21 14 21 5 0 9 9 9
21 0 11 5 17 10 14 6 -3 10 -1 10 6 0 7 8 21 18 32 9 11 12 18 6 14 -6 -3 -11
0 -11 8 0 8 4 12 8 9 4 -2 10 0 14 6 3 5 0 10 -7 10 -10 0 -10 2 1 9 8 5 11
16 8 24 -4 11 -1 14 8 11 9 -4 13 2 11 20 -2 14 0 26 5 26 4 0 6 9 4 20 -2 11
2 20 8 20 8 0 8 3 -2 9 -9 6 -10 11 -2 15 6 4 11 12 11 17 0 6 -6 7 -12 3 -10
-6 -10 -5 -2 7 13 16 14 149 1 149 -4 0 -3 10 4 21 8 15 8 19 0 15 -7 -5 -11
2 -11 18 0 14 -6 26 -12 26 -10 0 -9 3 1 9 9 6 10 11 2 15 -6 4 -11 22 -11 39
0 25 -2 29 -11 17 -9 -12 -10 -11 -6 7 3 13 -1 24 -10 27 -8 4 -13 13 -9 21 3
10 -1 15 -12 16 -11 0 -13 2 -4 6 10 4 7 9 -8 20 -12 8 -19 21 -16 29 3 7 0
16 -6 20 -7 5 -8 2 -3 -6 5 -9 4 -11 -3 -6 -7 4 -12 17 -12 29 0 18 -2 19 -10
7 -8 -12 -10 -12 -10 5 0 11 -14 31 -30 44 -17 13 -30 31 -30 40 0 14 -2 14
-10 1 -8 -13 -10 -12 -10 3 0 10 -4 15 -10 12 -5 -3 -10 -3 -10 2 0 4 -13 14
-30 21 -16 8 -30 20 -30 28 0 8 -5 14 -11 14 -5 0 -7 -4 -4 -10 3 -6 -1 -7 -9
-4 -9 3 -16 13 -16 21 0 13 -3 13 -15 3 -13 -11 -14 -10 -9 5 5 12 4 16 -3 12
-6 -4 -14 -1 -16 5 -4 9 -6 9 -6 -1 -1 -11 -5 -10 -17 5 -8 10 -12 13 -9 5 5
-9 0 -8 -18 4 -15 9 -31 14 -37 10 -5 -3 -10 -1 -10 4 0 13 -22 10 -32 -4 -4
-6 -8 -2 -8 8 0 10 -5 15 -10 12 -6 -4 -17 -1 -25 5 -12 10 -18 10 -30 0 -12
-10 -15 -10 -15 1 0 12 -2 12 -9 0 -5 -7 -11 -9 -14 -4 -6 10 -48 10 -65 -1
-7 -4 -12 -2 -12 5 0 8 -5 7 -17 -2 -15 -12 -16 -12 -8 1 6 12 5 13 -6 3 -16
-15 -33 -17 -24 -3 8 13 4 12 -17 -4z"/>
<path d="M2920 3146 c0 -2 8 -10 18 -17 15 -13 16 -12 3 4 -13 16 -21 21 -21
13z"/>
<path d="M2270 1956 c0 -2 7 -7 16 -10 8 -3 12 -2 9 4 -6 10 -25 14 -25 6z"/>
<path d="M4329 813 c-13 -16 -12 -17 4 -4 9 7 17 15 17 17 0 8 -8 3 -21 -13z"/>
<path d="M4084 598 l-19 -23 23 19 c12 11 22 21 22 23 0 8 -8 2 -26 -19z"/>
</g>
</svg>
