<svg fill="rgb(20, 135, 81)" xmlns="http://www.w3.org/2000/svg" viewBox="0 0 300 60" width="300" height="60">
  <path d="M293.5 52.3c-.7.8-1.5.9-2.5.9-2.3-.1-4.7 0-7 0-.7 0-1-.2-1.3-.8-2.2-5.2-4.3-10.4-6.7-15.5-2.2-4.9-4.2-9.9-6.3-14.9-.1-.2-.2-.4-.3-.7-.4.4-.5.9-.7 1.3-2 4.6-3.9 9.1-5.8 13.7-.5 1.2-.5 1.2.8 1.2 2.5 0 4.9 0 7.4 0 .8 0 1.2.2 1.6 1 .9 2.4 1.9 4.7 3 7 .3.8.2 1-.6.9-5.1 0-10.2 0-15.3 0-.8 0-1.1.2-1.4.9-.6 1.6-1.4 3.2-2.1 4.9-.3.7-.7 1-1.5 1-2.5 0-5.1 0-7.6 0-1.8 0-2.4-.9-1.7-2.5 2.6-6.1 5.2-12.1 7.8-18.2 3.2-7.5 6.4-15 9.6-22.5.4-.9.9-1.3 1.8-1.3 3.1 0 6.3 0 9.4 0 1 0 1.5.5 1.9 1.4 5.8 13.6 11.7 27.2 17.5 40.8.1.1.1.3.3.4C293.5 51.6 293.5 51.9 293.5 52.3zM27 8c0 3 0 5.9 0 8.9 0 .7-.2.9-.9 1-6.4 1.4-10.2 6-10.3 12.6-.1 6.2 4.1 11.6 10.1 13 .8.2 1.1.4 1.1 1.3-.1 3 0 6.1 0 9.1-.7 0-1.3 0-2 0-.2-.4-.7-.3-1.1-.4-9.6-1.7-17.1-9.3-18.6-18.9 0-.3 0-.6-.4-.7 0-2.1 0-4.1 0-6.2.4-.1.3-.5.4-.8 2-9.6 7.9-15.4 17.1-18.1.9-.3 1.9-.2 2.7-.8C25.8 8 26.4 8 27 8zM147.6 8c.1.4.5.3.8.3 10 2 17.2 9.8 18.6 19.9 1.6 11.6-6.7 23.1-18.2 25.3-.3.1-.8 0-1 .4-.5 0-1.1 0-1.6 0 0-3 0-6-.1-9 0-.8.2-1.1 1-1.2 7-1.6 11.4-8.7 9.7-15.6-1.3-5.2-4.7-8.4-9.8-9.7-.5-.1-.8-.2-.8-.9 0-3.1 0-6.3 0-9.4C146.7 8 147.2 8 147.6 8zM140.4 53.9c-.1-.4-.5-.3-.7-.4-10.1-2.1-17.7-10.9-18.3-20.8-.7-11.2 6.3-20.6 16-23.7.8-.2 1.6-.4 2.4-.6.3-.1.7 0 .9-.4.5 0 1.1 0 1.6 0 0 3.1 0 6.1.1 9.2 0 .7-.2.9-.9 1.1-8.9 2.1-13 11.8-8.2 19.6 1.9 3.1 4.7 4.9 8.2 5.8.4.1.9 0 .9.7 0 3.2-.1 6.3-.1 9.5C141.6 53.9 141 53.9 140.4 53.9z" class="st1"/>
  <path d="M30.8 53.9c0-3 .1-6.1 0-9.1 0-.8.2-1.1 1-1.2 3.3-.6 5.9-2.3 7.9-5 .8-1 1.4-1.1 2.5-.5 1.9 1.1 3.9 2.2 5.8 3.3 1.2.7 1.4 1.6.6 2.7-3.7 5-8.6 8.2-14.7 9.4-.4.1-.8 0-1.1.4C32.2 53.9 31.5 53.9 30.8 53.9zM32.8 8c.9.6 2 .5 2.9.7 5.2 1.4 9.5 4.1 12.8 8.3 1.1 1.4.9 2.2-.6 3.1-1.9 1.1-3.7 2.2-5.6 3.3C41.3 24.1 40.6 24 40 23c-2-2.8-4.7-4.5-8.1-5-.8-.1-1-.5-1-1.2 0-2.9 0-5.8 0-8.7C31.5 8 32.2 8 32.8 8z" class="st1"/>
  <path d="M187.1 24.5c0-4.5 0-9.1 0-13.6 0-1.6.5-2.1 2.1-2.1 6.3 0 12.6-.1 18.8 0 6 .1 11.4 1.8 15.8 6 3.9 3.7 5.9 8.4 6.3 13.7.6 7.1-1.2 13.5-6.6 18.5-4.3 4.1-9.7 6-15.6 6.1-6.4.1-12.8 0-19.1 0-1.2 0-1.8-.5-1.8-1.8 0-2.4 0-4.7 0-7.1 0-.9.2-1.1 1.1-1.1 6.2 0 12.5 0 18.7 0 5.2 0 9.6-3 11.6-7.7 1.9-4.5.7-10.5-2.7-13.7-2.5-2.3-5.5-3-8.8-3.1-2.6-.1-5.3 0-7.9 0-.9 0-1.3.3-1.3 1.3 0 6.1 0 12.2 0 18.2 0 1-.3 1.2-1.2 1.1-2.8-.1-5.6-.1-8.4 0-.9 0-1.2-.2-1.2-1.2C187.1 33.6 187.1 29 187.1 24.5zM93 43.9c0 2.4 0 4.8 0 7.2 0 1.5-.5 2-2 2-2.4 0-4.7 0-7.1 0-1.4 0-1.9-.5-1.9-1.9 0-4.5 0-9.1 0-13.6 0-.9-.2-1.6-.7-2.3-5.4-7.9-10.8-15.8-16.2-23.7-.4-.6-.8-1.3-.4-2 .4-.7 1.1-.8 1.8-.8 2.6 0 5.2 0 7.8 0 .8 0 1.4.3 1.9 1 5.7 8.5 11.2 17.2 16.5 25.9.2.3.3.6.3.9C93 39 93.1 41.5 93 43.9 93.1 43.9 93 43.9 93 43.9zM110.6 10.2c0 .5-.3.9-.6 1.4-3.4 4.9-6.8 9.8-10.2 14.7-1.3 1.9-2.6 3.8-3.9 5.7-.3.5-.6.7-.9 0-1.6-2.6-3.2-5.2-4.8-7.8-.3-.5-.3-.9 0-1.3 2.9-4.4 5.7-8.8 8.6-13.1.4-.7 1-1 1.8-1 2.7 0 5.4 0 8.1 0C110 8.7 110.6 9.2 110.6 10.2zM144.2 37c-3.4 0-6.2-2.8-6.2-6.2 0-3.5 2.7-6.2 6.2-6.2 3.4 0 6.2 2.8 6.2 6.2C150.4 34.3 147.6 37.1 144.2 37z" class="st1"/>
  <line x1="5" x2="5" y1="-46" y2="-10" class="st2"/>
  <line x1="-49" x2="-13" y1="8" y2="8" class="st2"/>
  <line x1="-49" x2="-13" y1="53.9" y2="53.9" class="st2"/>
  <line x1="5" x2="5" y1="107.9" y2="71.9" class="st2"/>
  <line x1="293.5" x2="293.5" y1="-46" y2="-10" class="st2"/>
  <line x1="347.5" x2="311.5" y1="8" y2="8" class="st2"/>
  <line x1="347.5" x2="311.5" y1="53.9" y2="53.9" class="st2"/>
  <line x1="293.5" x2="293.5" y1="107.9" y2="71.9" class="st2"/>
</svg>
